<?xml version="1.0" standalone="no"?>
<!DOCTYPE svg PUBLIC "-//W3C//DTD SVG 20010904//EN"
 "http://www.w3.org/TR/2001/REC-SVG-20010904/DTD/svg10.dtd">
<svg version="1.0" xmlns="http://www.w3.org/2000/svg"
 width="2560.000000pt" height="666.000000pt" viewBox="0 0 2560.000000 666.000000"
 preserveAspectRatio="xMidYMid meet">

<g transform="translate(0.000000,666.000000) scale(0.100000,-0.100000)"
fill="#fff" stroke="none">
<path d="M3075 6460 c-1224 -109 -2260 -880 -2708 -2015 -141 -356 -205 -680
-214 -1077 -8 -334 21 -602 96 -889 275 -1050 1059 -1887 2086 -2224 802 -264
1640 -206 2400 165 1123 548 1824 1713 1782 2960 -21 618 -199 1171 -540 1680
-511 765 -1329 1269 -2247 1385 -149 19 -515 27 -655 15z m175 -313 c0 -2 -81
-588 -180 -1302 -148 -1073 -183 -1302 -197 -1316 -10 -9 -268 -212 -573 -450
-305 -238 -761 -594 -1014 -792 -252 -197 -464 -361 -470 -363 -8 -3 -35 43
-73 123 -377 798 -371 1712 16 2498 319 646 845 1135 1510 1402 260 104 484
158 826 197 41 4 155 7 155 3z m515 -27 c1166 -178 2103 -1049 2366 -2200 54
-237 64 -340 64 -640 -1 -344 -27 -543 -111 -820 -57 -187 -203 -530 -226
-530 -4 0 -234 177 -511 393 -379 297 -1529 1194 -1556 1213 -2 2 -84 578
-182 1281 -98 703 -181 1291 -184 1307 l-5 29 107 -7 c60 -4 167 -16 238 -26z
m621 -3796 c577 -234 1122 -455 1212 -491 89 -36 162 -70 162 -75 0 -14 -89
-144 -165 -243 -385 -497 -939 -859 -1551 -1016 -265 -67 -399 -83 -709 -83
-230 0 -291 3 -414 22 -623 97 -1186 383 -1621 822 -170 172 -407 479 -385
498 6 5 336 142 735 305 399 164 937 385 1195 491 259 107 475 195 481 195 6
1 483 -191 1060 -425z"/>
<path d="M16200 4289 c-41 -10 -124 -26 -185 -34 -161 -24 -157 -22 -153 -48
3 -20 10 -23 73 -28 39 -3 80 -10 91 -17 39 -21 44 -60 43 -366 0 -277 -1
-290 -17 -266 -110 161 -231 218 -402 191 -203 -33 -364 -203 -431 -456 -30
-111 -33 -363 -5 -480 51 -221 158 -369 326 -449 61 -29 71 -31 185 -31 102 0
127 3 167 22 59 27 132 94 165 151 28 47 43 43 43 -11 0 -15 7 -59 16 -96 l15
-69 82 23 c45 12 123 28 172 34 135 18 137 18 133 44 -3 20 -11 23 -74 28 -39
4 -80 13 -92 20 -48 30 -47 7 -50 962 -2 698 -5 897 -15 896 -7 -1 -46 -10
-87 -20z m-340 -669 c84 -43 145 -141 182 -288 20 -78 23 -113 23 -327 0 -266
-10 -337 -64 -451 -60 -126 -140 -179 -261 -172 -152 8 -244 124 -287 361 -23
127 -22 428 0 555 36 200 107 306 225 338 56 16 133 9 182 -16z"/>
<path d="M7900 4254 c0 -34 16 -44 75 -44 89 0 153 -43 165 -110 5 -26 -5
-351 -25 -815 -36 -835 -36 -829 -93 -859 -24 -12 -131 -36 -164 -36 -5 0 -8
-16 -8 -35 l0 -36 48 6 c63 8 314 11 432 5 l95 -5 3 31 c3 31 2 32 -45 38
-138 19 -174 38 -192 103 -8 27 -2 250 19 797 17 419 30 770 30 781 1 16 2 17
9 5 12 -21 444 -1190 539 -1460 72 -204 82 -225 104 -228 21 -3 26 4 42 55 10
32 149 414 309 848 l292 790 7 -75 c14 -151 29 -1485 18 -1516 -24 -62 -64
-84 -182 -99 -47 -6 -48 -7 -48 -41 0 -34 1 -35 33 -29 123 21 433 23 662 3
27 -3 30 0 33 29 3 31 3 31 -55 38 -66 7 -122 23 -141 38 -42 33 -43 46 -57
670 -22 953 -22 1009 -2 1040 22 34 60 53 122 62 104 14 105 14 105 48 l0 32
-258 0 -258 0 -76 -205 c-43 -113 -166 -442 -274 -733 -108 -290 -199 -525
-202 -523 -3 3 -125 332 -272 732 l-267 727 -262 1 -261 1 0 -31z"/>
<path d="M19790 4245 c0 -19 3 -35 8 -35 40 -1 149 -23 171 -35 57 -29 56 -9
56 -880 0 -632 -3 -805 -13 -822 -18 -33 -61 -51 -146 -64 l-76 -11 0 -35 0
-35 468 4 c441 4 471 6 545 26 110 30 192 76 262 147 103 103 155 233 155 386
0 231 -126 401 -344 464 l-59 17 62 31 c162 80 251 220 251 395 0 249 -148
423 -397 467 -58 11 -187 14 -510 15 l-433 0 0 -35z m853 -69 c101 -24 165
-81 203 -181 15 -41 19 -77 19 -195 0 -177 -17 -232 -99 -316 -72 -73 -122
-87 -331 -88 l-160 -1 -3 398 -2 397 157 0 c97 0 180 -6 216 -14z m122 -904
c133 -61 195 -186 195 -390 0 -167 -35 -274 -113 -353 -86 -85 -184 -113 -380
-108 -108 4 -129 7 -154 25 -15 11 -31 32 -34 45 -4 13 -7 201 -8 417 l-1 394
223 -4 c206 -3 225 -5 272 -26z"/>
<path d="M13515 3700 c-19 -38 -38 -70 -41 -70 -3 0 -24 14 -46 31 -71 56
-141 79 -248 79 -105 0 -169 -14 -245 -52 -212 -108 -335 -353 -335 -669 0
-433 225 -720 565 -719 231 1 389 134 449 381 25 100 25 99 -42 99 l-59 0 -12
-69 c-35 -197 -151 -314 -311 -314 -214 0 -323 177 -337 548 -12 307 46 536
164 646 59 56 107 73 193 73 146 0 249 -100 306 -294 20 -71 23 -75 53 -78
l31 -3 0 240 0 241 -25 0 c-21 0 -31 -12 -60 -70z"/>
<path d="M18766 3710 c-10 -28 -22 -52 -26 -55 -5 -3 -35 8 -67 24 -84 42
-136 54 -238 53 -154 0 -276 -53 -355 -153 -54 -68 -75 -136 -75 -239 0 -73 4
-93 28 -142 47 -96 111 -138 439 -288 203 -92 251 -141 252 -255 0 -119 -71
-208 -197 -247 -92 -28 -177 -20 -264 22 -95 47 -155 131 -198 278 -12 40 -25
73 -28 72 -4 0 -18 0 -32 0 l-25 0 0 -240 0 -240 28 0 c23 0 32 10 60 60 18
33 34 60 36 60 2 0 30 -16 62 -35 89 -54 172 -76 284 -76 162 0 270 41 361
138 72 76 102 147 107 253 5 101 -7 151 -51 216 -44 65 -124 118 -297 193
-177 77 -286 134 -324 169 -107 100 -54 285 102 354 50 22 155 26 220 8 92
-24 169 -129 194 -262 12 -68 13 -68 45 -68 l33 0 0 225 0 225 -28 0 c-25 0
-30 -6 -46 -50z"/>
<path d="M23025 3738 c-33 -11 -114 -30 -180 -42 -106 -20 -120 -25 -123 -44
-4 -24 9 -29 102 -35 75 -5 92 -24 101 -110 4 -34 5 -282 3 -552 -2 -375 -6
-495 -16 -512 -18 -32 -59 -51 -130 -59 -60 -6 -62 -8 -62 -35 0 -29 1 -29 43
-22 23 5 146 8 272 8 127 0 249 -3 273 -8 41 -7 42 -7 42 22 0 27 -2 29 -60
35 -47 6 -68 14 -93 36 l-32 28 0 454 c0 418 1 458 19 511 25 75 80 138 147
167 64 27 193 30 249 7 79 -34 124 -107 140 -229 13 -102 13 -843 -1 -891 -13
-48 -54 -74 -131 -83 -56 -6 -58 -8 -58 -35 0 -29 1 -29 43 -22 55 10 499 10
555 0 41 -7 42 -7 42 21 0 27 -2 28 -76 39 -60 9 -82 17 -103 37 l-26 26 -6
468 c-4 306 -10 482 -18 510 -53 196 -202 305 -416 305 -142 -1 -256 -54 -338
-159 -23 -29 -45 -53 -48 -53 -3 -1 -9 38 -12 87 -8 110 -17 152 -31 151 -6
-1 -38 -10 -71 -21z"/>
<path d="M11710 3724 c-63 -13 -141 -26 -172 -29 -53 -6 -58 -9 -58 -31 0 -22
4 -24 43 -24 64 -1 120 -17 140 -41 16 -20 17 -62 17 -575 0 -392 -3 -560 -11
-578 -15 -33 -60 -53 -136 -62 -61 -6 -63 -7 -63 -35 0 -29 1 -29 43 -22 55
10 509 10 565 0 41 -7 42 -7 42 22 0 27 -3 29 -56 35 -76 9 -122 30 -134 61
-6 16 -10 187 -10 430 0 480 8 544 87 658 55 80 175 115 224 66 19 -19 21 -29
15 -90 -6 -65 -5 -70 22 -100 55 -61 161 -48 196 25 48 102 -13 243 -126 290
-55 23 -165 21 -235 -6 -68 -25 -148 -100 -186 -174 l-25 -49 -6 35 c-3 19 -8
67 -11 105 -9 96 -14 115 -34 114 -9 -1 -68 -12 -131 -25z"/>
<path d="M10626 3729 c-136 -32 -267 -142 -336 -282 -70 -143 -84 -213 -84
-432 0 -164 3 -201 22 -270 78 -288 276 -445 562 -445 186 0 331 74 421 213
39 61 74 152 85 225 l7 42 -57 0 c-53 0 -56 -1 -62 -27 -40 -179 -98 -270
-210 -326 -81 -41 -240 -40 -323 3 -45 23 -112 94 -140 148 -43 85 -81 287
-81 432 l0 50 436 0 437 0 -7 88 c-25 321 -154 518 -379 578 -58 15 -230 17
-291 3z m218 -71 c59 -18 137 -99 164 -169 23 -63 47 -174 56 -266 l7 -63
-317 0 -317 0 7 64 c9 88 39 203 72 272 65 139 193 202 328 162z"/>
<path d="M14249 3721 c-142 -45 -250 -141 -318 -284 -49 -102 -68 -172 -83
-313 -13 -123 -2 -275 28 -389 42 -164 148 -306 275 -369 181 -91 417 -86 571
10 110 70 192 207 222 372 l6 32 -58 0 -57 0 -17 -72 c-25 -100 -63 -172 -123
-226 -68 -62 -136 -86 -241 -85 -235 3 -350 166 -373 529 -4 66 -6 122 -4 127
2 4 198 7 435 7 l431 0 -6 103 c-6 112 -40 244 -83 330 -15 28 -51 76 -80 107
-97 102 -199 140 -369 139 -67 0 -118 -6 -156 -18z m285 -85 c54 -31 100 -94
127 -174 23 -66 49 -207 49 -263 l0 -39 -316 0 -316 0 7 53 c32 256 116 403
255 448 48 16 146 3 194 -25z"/>
<path d="M17050 3725 c-112 -32 -201 -92 -266 -179 -58 -77 -76 -111 -107
-212 -72 -228 -57 -544 34 -727 99 -201 275 -307 509 -307 250 0 433 140 494
377 26 100 25 103 -38 103 l-53 0 -17 -67 c-34 -138 -92 -226 -183 -276 -89
-48 -229 -54 -325 -14 -90 38 -162 139 -199 279 -20 80 -45 317 -36 342 6 14
53 16 438 16 l432 0 -7 94 c-14 197 -83 375 -181 464 -59 54 -135 95 -206 111
-61 14 -235 12 -289 -4z m224 -66 c55 -15 128 -88 159 -157 27 -61 51 -167 62
-274 l7 -68 -316 0 -316 0 0 26 c0 58 43 232 74 298 69 149 191 214 330 175z"/>
<path d="M21869 3721 c-230 -74 -368 -278 -400 -596 -20 -193 8 -377 78 -525
47 -97 144 -197 234 -240 178 -84 412 -78 558 15 115 72 195 205 225 373 l6
32 -58 0 -58 0 -13 -62 c-20 -97 -63 -179 -126 -236 -70 -65 -132 -86 -244
-85 -75 1 -91 5 -150 34 -139 71 -205 223 -218 502 l-6 127 434 0 435 0 -8
104 c-8 112 -43 247 -84 328 -32 63 -114 151 -172 185 -23 14 -70 34 -103 44
-81 25 -251 25 -330 0z m278 -79 c99 -51 162 -190 179 -399 l7 -83 -317 0
-317 0 7 53 c30 250 116 403 254 448 42 14 142 3 187 -19z"/>
<path d="M24360 3588 c-12 -68 -28 -153 -35 -190 l-12 -68 29 0 c24 0 32 6 44
38 62 151 121 228 191 251 41 13 493 29 493 17 0 -4 -173 -293 -385 -642 -212
-349 -388 -641 -392 -649 -4 -13 61 -15 494 -15 l499 0 33 183 c18 100 35 194
38 210 5 25 3 27 -24 27 -27 0 -32 -5 -48 -47 -53 -141 -112 -224 -190 -266
-37 -20 -57 -22 -269 -25 -186 -3 -228 -1 -224 10 3 7 179 298 392 646 212
349 386 636 386 638 0 2 -225 4 -499 4 l-499 0 -22 -122z"/>
<path d="M19100 3115 l0 -75 325 0 325 0 0 75 0 75 -325 0 -325 0 0 -75z"/>
</g>
</svg>
